<svg width="12" height="12" viewBox="0 0 12 12" fill="none" xmlns="http://www.w3.org/2000/svg">
<path fillRule="evenodd" clipRule="evenodd" d="M2.35051 0.147281C2.26951 0.228375 2.20323 0.412406 2.20323 0.556313C2.20323 0.804469 2.17594 0.821156 1.67298 0.880219C0.951569 0.965062 0.545819 1.17731 0.249569 1.62497L9.98211e-05 2.00194V6.41503C9.98211e-05 11.3479 -0.0239002 11.1593 0.672381 11.6904L1.01673 11.9531H5.76573H10.5147L10.8591 11.6904C11.5554 11.1593 11.5314 11.3479 11.5314 6.41503V2.00194L11.2819 1.62497C10.9856 1.17731 10.5799 0.965062 9.85848 0.880219C9.35551 0.821156 9.32823 0.804469 9.32823 0.556313C9.32823 0.255 9.11279 0 8.85807 0C8.64338 0 8.39073 0.340688 8.39073 0.630281V0.84375H5.76573H3.14073V0.630281C3.14073 0.126 2.66354 -0.165656 2.35051 0.147281ZM2.20323 2.09794C2.20323 2.47884 2.38116 2.64909 2.73666 2.60831C2.96232 2.58244 3.01276 2.52094 3.08841 2.17969L3.17673 1.78125H5.76573H8.35473L8.44304 2.17969C8.5187 2.52094 8.56913 2.58244 8.79479 2.60831C9.15029 2.64909 9.32823 2.47884 9.32823 2.09794C9.32823 1.78659 9.33507 1.78125 9.73745 1.78125C10.0095 1.78125 10.2295 1.84641 10.3937 1.97559C10.6256 2.15803 10.6407 2.21803 10.6407 2.95997V3.75H5.76573H0.890725V2.95997C0.890725 2.21803 0.905819 2.15803 1.13776 1.97559C1.30191 1.84641 1.52194 1.78125 1.79401 1.78125C2.19638 1.78125 2.20323 1.78659 2.20323 2.09794ZM10.6407 7.64681C10.6407 9.39778 10.6032 10.6761 10.5489 10.7776C10.3621 11.1266 9.98804 11.1562 5.76573 11.1562C1.54341 11.1562 1.16935 11.1266 0.982506 10.7776C0.928225 10.6761 0.890725 9.39778 0.890725 7.64681V4.6875H5.76573H10.6407V7.64681Z" fill="black"/>
</svg>
