<svg width="158" height="159" viewBox="0 0 158 159" fill="none" xmlns="http://www.w3.org/2000/svg">
<path fillRule="evenodd" clipRule="evenodd" d="M65.2183 0.689635C36.6113 5.91663 12.9893 26.5356 3.31232 54.7246C0.232316 63.6976 0.0483173 65.0286 0.00331733 78.7246C-0.0376827 91.2376 0.277319 94.2526 2.30632 100.725C11.2393 129.226 31.0553 148.353 60.4553 156.85C63.1933 157.641 70.4383 158.151 78.9553 158.151C87.4723 158.151 94.7173 157.641 97.4553 156.85C126.855 148.353 146.671 129.226 155.604 100.725C157.633 94.2526 157.948 91.2376 157.907 78.7246C157.862 65.0286 157.678 63.6976 154.598 54.7246C145.833 29.1916 126.928 10.8746 100.955 2.74964C93.1163 0.297636 73.5403 -0.830365 65.2183 0.689635ZM100.455 8.71363C124.682 16.8996 141.47 33.8046 149.619 58.2246C151.622 64.2276 151.955 67.2176 151.955 79.2246C151.955 91.2316 151.622 94.2216 149.619 100.225C146.561 109.389 141.475 118.958 136.207 125.46L131.966 130.695L128.577 123.973C123.944 114.783 114.122 105.093 104.554 100.275C87.9193 91.8976 70.2903 91.7776 53.6683 99.9276C44.5823 104.383 33.8333 114.996 29.3293 123.96L25.9443 130.695L21.7033 125.46C16.4353 118.958 11.3493 109.389 8.29132 100.225C6.28832 94.2216 5.95532 91.2316 5.95532 79.2246C5.95532 67.2176 6.28832 64.2276 8.29132 58.2246C16.4573 33.7536 33.9043 16.2366 57.4553 8.86064C66.8003 5.93464 67.6583 5.83864 81.4553 6.19464C91.0503 6.44264 95.4663 7.02763 100.455 8.71363ZM70.3643 25.2786C64.3713 27.1246 57.0263 33.6756 53.7443 40.1016C50.0393 47.3566 49.4623 58.1126 52.3653 65.8036C62.0383 91.4306 95.8723 91.4306 105.545 65.8036C107.216 61.3766 107.561 58.6756 107.217 52.7246C106.677 43.4056 103.499 36.6936 96.8563 30.8466C89.3763 24.2626 80.0353 22.2986 70.3643 25.2786Z" fill="black"/>
</svg>
