<svg width="14" height="14" viewBox="0 0 14 14" fill="none" xmlns="http://www.w3.org/2000/svg">
<path d="M8.27836 9.51354C7.20718 10.2751 5.88897 10.6065 4.58498 10.442C3.28099 10.2774 2.0864 9.62903 1.23795 8.62525C0.389508 7.62146 -0.0508679 6.33555 0.00410182 5.02238C0.0590715 3.7092 0.605375 2.4646 1.53474 1.53523C2.46411 0.605863 3.70871 0.0595598 5.02189 0.00459011C6.33506 -0.0503796 7.62097 0.389997 8.62476 1.23844C9.62854 2.08689 10.277 3.28148 10.4415 4.58547C10.606 5.88945 10.2746 7.20766 9.51305 8.27885L13.7215 12.4861C13.8073 12.5661 13.8761 12.6625 13.9239 12.7697C13.9716 12.8768 13.9973 12.9925 13.9994 13.1098C14.0014 13.2271 13.9799 13.3436 13.9359 13.4524C13.892 13.5612 13.8266 13.66 13.7436 13.743C13.6607 13.8259 13.5619 13.8913 13.4531 13.9353C13.3443 13.9792 13.2278 14.0008 13.1105 13.9987C12.9932 13.9966 12.8775 13.971 12.7704 13.9232C12.6632 13.8755 12.5668 13.8066 12.4868 13.7208L8.27836 9.51354ZM8.73612 5.24105C8.73612 4.31428 8.36797 3.42547 7.71264 2.77014C7.05731 2.11481 6.1685 1.74666 5.24173 1.74666C4.31496 1.74666 3.42614 2.11481 2.77082 2.77014C2.11549 3.42547 1.74733 4.31428 1.74733 5.24105C1.74733 6.16782 2.11549 7.05664 2.77082 7.71197C3.42614 8.36729 4.31496 8.73545 5.24173 8.73545C6.1685 8.73545 7.05731 8.36729 7.71264 7.71197C8.36797 7.05664 8.73612 6.16782 8.73612 5.24105Z" fill="black"/>
</svg>
