<svg width="52" height="52" viewBox="0 0 52 52" fill="none" xmlns="http://www.w3.org/2000/svg">
<path fillRule="evenodd" clipRule="evenodd" d="M19.3148 0.714451C14.8442 1.88595 11.2865 3.99707 7.64329 7.6405C2.29014 12.994 0 18.4946 0 25.9984C0 33.5022 2.29014 39.0027 7.64329 44.3562C12.9964 49.7097 18.4967 52 26 52C33.5033 52 39.0036 49.7097 44.3567 44.3562C49.7099 39.0027 52 33.5022 52 25.9984C52 18.4946 49.7099 12.994 44.3567 7.6405C40.6658 3.94934 37.1284 1.87028 32.5452 0.69771C28.8821 -0.239061 22.9252 -0.231581 19.3148 0.714451ZM32.8405 5.65084C34.154 6.07791 36.4427 7.23872 37.9262 8.23106C45.6446 13.394 49.1372 23.021 46.5421 31.9816C45.4936 35.6019 43.8577 38.3431 41.101 41.1003C38.3439 43.8572 35.6029 45.4932 31.9829 46.5418C20.9211 49.746 9.23214 43.6008 5.66301 32.7047C4.43959 28.9697 4.43959 23.0271 5.66301 19.2921C7.81674 12.7176 13.2027 7.47915 19.8911 5.45352C23.4616 4.37249 29.1738 4.4594 32.8405 5.65084ZM25.3589 5.41077C24.9155 5.85423 24.7687 9.13114 25.1477 10.1188C25.2667 10.4287 25.6502 10.6823 26 10.6823C26.8206 10.6823 27.0685 9.98955 27.0685 7.69678C27.0685 6.0544 26.6468 4.98335 26 4.98335C25.8825 4.98335 25.594 5.17569 25.3589 5.41077ZM32.8141 17.4353C26.135 24.4397 26.499 24.336 22.2197 20.4511C19.1114 17.6287 18.1281 17.3056 17.6105 18.9363C17.4228 19.5275 17.9496 20.2506 20.2636 22.5765C22.1787 24.502 23.1507 25.7515 23.1507 26.289C23.1507 26.7346 23.5442 27.4926 24.0251 27.9734C25.8825 29.8313 28.8493 28.4838 28.8493 25.7825C28.8493 24.5612 29.2514 24.0586 34.4005 18.8436C39.9613 13.2116 40.705 12.0729 38.984 11.8253C38.4529 11.7488 36.8267 13.2273 32.8141 17.4353ZM5.34247 25.4641C4.56389 26.4023 5.52945 27.0669 7.67214 27.0669C9.99219 27.0669 10.6849 26.8212 10.6849 25.9984C10.6849 25.1756 9.99219 24.9298 7.67214 24.9298C6.42984 24.9298 5.63452 25.1122 5.34247 25.4641ZM41.7603 25.1656C41.1263 25.4213 41.2086 26.5936 41.8785 26.8507C43.0236 27.2903 46.2045 27.0783 46.6575 26.5326C47.4621 25.5631 46.4716 24.9262 44.21 24.9579C43.1073 24.9733 42.0053 25.0669 41.7603 25.1656ZM25.1477 41.8779C24.7082 43.023 24.9201 46.2041 25.4658 46.6572C26.4039 47.4358 27.0685 46.4702 27.0685 44.3274C27.0685 42.0072 26.8227 41.3144 26 41.3144C25.6502 41.3144 25.2667 41.568 25.1477 41.8779Z" fill="black"/>
</svg>
