<svg width="132" height="61" viewBox="0 0 132 61" fill="none" xmlns="http://www.w3.org/2000/svg">
<path d="M14.3996 39H17.0096V54H14.3996V51.42C13.0996 53.4 11.2096 54.39 8.72965 54.39C6.62965 54.39 4.83965 53.625 3.35965 52.095C1.87965 50.565 1.13965 48.7 1.13965 46.5C1.13965 44.3 1.87965 42.435 3.35965 40.905C4.83965 39.375 6.62965 38.61 8.72965 38.61C11.2096 38.61 13.0996 39.6 14.3996 41.58V39ZM9.05965 51.87C10.5796 51.87 11.8496 51.355 12.8696 50.325C13.8896 49.295 14.3996 48.02 14.3996 46.5C14.3996 44.98 13.8896 43.705 12.8696 42.675C11.8496 41.645 10.5796 41.13 9.05965 41.13C7.55965 41.13 6.29965 41.645 5.27965 42.675C4.25965 43.705 3.74965 44.98 3.74965 46.5C3.74965 48.02 4.25965 49.295 5.27965 50.325C6.29965 51.355 7.55965 51.87 9.05965 51.87ZM23.5796 41.52C24.4396 39.66 25.9996 38.73 28.2596 38.73V41.46C26.9796 41.4 25.8796 41.74 24.9596 42.48C24.0396 43.22 23.5796 44.41 23.5796 46.05V54H20.9696V39H23.5796V41.52ZM47.0096 38.61C48.6896 38.61 50.0496 39.155 51.0896 40.245C52.1297 41.335 52.6497 42.81 52.6497 44.67V54H50.0396V44.76C50.0396 43.6 49.7396 42.7 49.1396 42.06C48.5396 41.42 47.7397 41.1 46.7397 41.1C45.6197 41.1 44.7246 41.475 44.0546 42.225C43.3847 42.975 43.0496 44.12 43.0496 45.66V54H40.4396V44.76C40.4396 43.6 40.1546 42.7 39.5846 42.06C39.0146 41.42 38.2396 41.1 37.2596 41.1C36.1596 41.1 35.2446 41.48 34.5146 42.24C33.7846 43 33.4196 44.14 33.4196 45.66V54H30.8096V39H33.4196V41.01C34.4396 39.41 35.9296 38.61 37.8896 38.61C39.9096 38.61 41.3797 39.46 42.2996 41.16C43.3396 39.46 44.9096 38.61 47.0096 38.61ZM66.7496 39H69.5396L63.4196 54.93C62.7796 56.63 61.8847 57.925 60.7346 58.815C59.5846 59.705 58.2596 60.1 56.7596 60V57.57C58.5996 57.71 59.9496 56.69 60.8097 54.51L61.0797 53.94L54.5396 39H57.3297L62.4296 50.76L66.7496 39Z" fill="#00D4D4"/>
<path d="M13.1198 5.4C10.2928 5.187 8.87984 6.32 8.87984 8.8V9H13.1198V13.96H8.87984V29H3.71984V13.96H0.839844V9H3.71984V8.8C3.71984 5.973 4.50684 3.827 6.07984 2.36C7.65284 0.893 9.99984 0.253 13.1198 0.44V5.4ZM20.6398 12.44C21.1198 11.16 21.9128 10.2 23.0198 9.56C24.1268 8.92 25.3598 8.6 26.7198 8.6V14.36C25.1468 14.173 23.7398 14.493 22.4998 15.32C21.2598 16.147 20.6398 17.52 20.6398 19.44V29H15.4798V9H20.6398V12.44ZM46.7598 26.52C44.7068 28.547 42.1998 29.56 39.2398 29.56C36.2798 29.56 33.7798 28.54 31.7398 26.5C29.6998 24.46 28.6798 21.96 28.6798 19C28.6798 16.04 29.6998 13.54 31.7398 11.5C33.7798 9.46 36.2798 8.44 39.2398 8.44C42.1998 8.44 44.7068 9.46 46.7598 11.5C48.8128 13.54 49.8398 16.04 49.8398 19C49.8398 21.96 48.8128 24.467 46.7598 26.52ZM35.3598 22.96C36.3998 24 37.6928 24.52 39.2398 24.52C40.7868 24.52 42.0798 24 43.1198 22.96C44.1598 21.92 44.6798 20.6 44.6798 19C44.6798 17.4 44.1598 16.08 43.1198 15.04C42.0798 14 40.7868 13.48 39.2398 13.48C37.6928 13.48 36.4068 14 35.3798 15.04C34.3528 16.08 33.8398 17.4 33.8398 19C33.8398 20.6 34.3468 21.92 35.3598 22.96ZM64.5998 8.44C66.7868 8.44 68.5928 9.173 70.0198 10.64C71.4468 12.107 72.1599 14.133 72.1599 16.72V29H66.9998V17.36C66.9998 16.027 66.6398 15.007 65.9198 14.3C65.1998 13.593 64.2398 13.24 63.0398 13.24C61.7068 13.24 60.6398 13.653 59.8398 14.48C59.0398 15.307 58.6398 16.547 58.6398 18.2V29H53.4798V9H58.6398V11.24C59.8928 9.373 61.8798 8.44 64.5998 8.44ZM87.9998 13.96H83.4799V22.28C83.4799 22.973 83.6528 23.48 83.9998 23.8C84.3468 24.12 84.8528 24.3 85.5198 24.34C86.1868 24.38 87.0128 24.373 87.9998 24.32V29C84.4529 29.4 81.9529 29.067 80.4998 28C79.0468 26.933 78.3198 25.027 78.3198 22.28V13.96H74.8398V9H78.3198V4.96L83.4799 3.4V9H87.9998V13.96Z" fill="black"/>
<path fillRule="evenodd" clipRule="evenodd" d="M106.614 9.247L110.183 10.131L98.9728 53.753L95.4048 52.869L106.614 9.247ZM115.8 15.463L113.363 17.933L128.948 34.269L131.385 31.799L115.8 15.463Z" fill="black"/>
<path fillRule="evenodd" clipRule="evenodd" d="M115.8 48.105L113.363 45.635L128.948 29.3L131.385 31.77L115.8 48.105Z" fill="black"/>
</svg>
